

<svg width="17" class="icon icon-search" height="17" viewBox="0 0 17 17" fill="none" xmlns="http://www.w3.org/2000/svg">
<path d="M7.26962 14.5392C8.88254 14.5389 10.449 13.9989 11.7195 13.0053L15.7142 17L16.9991 15.7151L13.0044 11.7204C13.9986 10.4498 14.5388 8.88296 14.5392 7.26962C14.5392 3.26133 11.2779 0 7.26962 0C3.26133 0 0 3.26133 0 7.26962C0 11.2779 3.26133 14.5392 7.26962 14.5392ZM7.26962 1.8174C10.2765 1.8174 12.7218 4.26272 12.7218 7.26962C12.7218 10.2765 10.2765 12.7218 7.26962 12.7218C4.26272 12.7218 1.8174 10.2765 1.8174 7.26962C1.8174 4.26272 4.26272 1.8174 7.26962 1.8174Z" fill="currentColor"/>
</svg>
