<svg width="25" height="25" viewBox="0 0 25 25" class="icon icon-account" fill="none" xmlns="http://www.w3.org/2000/svg">
<path d="M8.33301 8.33333C8.33301 5.83333 9.89551 3.125 13.0205 3.125C16.1455 3.125 17.708 5.83333 17.708 8.33333C17.708 11.4583 14.583 13.5417 13.0205 13.5417C11.458 13.5417 8.33301 11.4583 8.33301 8.33333Z" stroke="currentColor" stroke-width="2"/>
<path d="M4.16699 22.9167V18.75C4.16699 18.0556 4.63342 17.0709 6.25033 16.6667C8.33366 16.1458 8.33366 15.625 9.89616 15.625C11.4587 15.625 11.9795 17.7083 13.0212 17.7083C14.0628 17.7083 14.5837 15.625 16.1462 15.625C17.7087 15.625 17.7087 16.1458 19.792 16.6667C21.4089 17.0709 21.8753 18.0556 21.8753 18.75V22.9167" stroke="currentColor" stroke-width="2"/>
</svg>
