<svg width="17" height="18" viewBox="0 0 17 18" fill="none" class="icon" xmlns="http://www.w3.org/2000/svg">
<path d="M16.4449 6.08495C16.3507 5.95626 16.2 5.88273 16.0304 5.88273L14.2786 5.79081C14.4858 5.29446 14.5988 4.76133 14.5988 4.20983C14.5988 1.8935 12.6586 0 10.2851 0C7.91161 0 5.97139 1.8935 5.97139 4.20983C5.97139 4.61427 6.0279 5.0187 6.14092 5.40476L4.21953 5.31284L3.8993 3.21712C3.86162 2.94136 3.61674 2.75753 3.33418 2.75753H0.565115C0.244883 2.75753 0 2.99652 0 3.30904C0 3.62156 0.244883 3.86054 0.565115 3.86054H2.86325L4.35139 13.4567C4.42674 13.8979 4.63395 14.284 4.93534 14.5781C4.61511 14.8907 4.4079 15.3135 4.4079 15.7915C4.4079 16.729 5.18022 17.4827 6.14092 17.4827C7.10162 17.4827 7.87394 16.729 7.87394 15.7915C7.87394 15.5892 7.83627 15.387 7.76092 15.2032H11.8109C11.7356 15.387 11.6979 15.5892 11.6979 15.7915C11.6979 16.729 12.4702 17.4827 13.4309 17.4827C14.3916 17.4827 15.1639 16.729 15.1639 15.7915C15.1639 14.8539 14.3916 14.1002 13.4309 14.1002H6.42348C5.95255 14.1002 5.53813 13.7693 5.46278 13.3097L5.33092 12.4089H12.5832C14.2597 12.4089 15.6914 11.2323 15.9928 9.63297L16.5579 6.52615C16.5767 6.3607 16.539 6.21363 16.4449 6.08495ZM13.4497 15.1664C13.7888 15.1664 14.0525 15.4422 14.0525 15.7547C14.0525 16.0672 13.77 16.343 13.4497 16.343C13.1107 16.343 12.847 16.0672 12.847 15.7547C12.847 15.4422 13.1107 15.1664 13.4497 15.1664ZM6.15976 15.1664C6.49883 15.1664 6.76255 15.4422 6.76255 15.7547C6.76255 16.0672 6.47999 16.343 6.15976 16.343C5.83953 16.343 5.55697 16.0672 5.55697 15.7547C5.55697 15.4422 5.82069 15.1664 6.15976 15.1664ZM10.2851 1.10301C12.037 1.10301 13.4686 2.50016 13.4686 4.20983C13.4686 5.9195 12.037 7.31664 10.2851 7.31664C8.53324 7.31664 7.10162 5.9195 7.10162 4.20983C7.10162 2.50016 8.53324 1.10301 10.2851 1.10301ZM14.8814 9.43075C14.6742 10.5154 13.7135 11.3059 12.5832 11.3059H5.16139L4.4079 6.41585L6.6872 6.52615C7.45952 7.66593 8.77812 8.41966 10.2851 8.41966C11.6414 8.41966 12.8281 7.813 13.6193 6.85706L15.3335 6.94897L14.8814 9.43075Z" fill="white"/>
<path d="M8.75929 4.76133H9.70115V5.68051C9.70115 5.99303 9.94603 6.23202 10.2663 6.23202C10.5865 6.23202 10.8314 5.99303 10.8314 5.68051V4.76133H11.7732C12.0935 4.76133 12.3384 4.52235 12.3384 4.20983C12.3384 3.89731 12.0935 3.65832 11.7732 3.65832H10.8314V2.73915C10.8314 2.42663 10.5865 2.18764 10.2663 2.18764C9.94603 2.18764 9.70115 2.42663 9.70115 2.73915V3.65832H8.75929C8.43906 3.65832 8.19417 3.89731 8.19417 4.20983C8.21301 4.50396 8.45789 4.76133 8.75929 4.76133Z" fill="white"/>
</svg>
