
<svg class="icon icon-youtube" xmlns="http://www.w3.org/2000/svg" width="19" height="13" viewBox="0 0 19 13" fill="none">
<path d="M0.756836 9.38145V9.38198C0.767108 9.64758 0.770532 9.9147 0.834358 10.1786C0.902292 10.4579 0.9994 10.7301 1.18465 10.9836C1.43511 11.3266 1.778 11.6164 2.21332 11.8529C2.52505 12.0228 2.86561 12.1577 3.24261 12.2428C3.79225 12.3667 4.35935 12.4142 4.93474 12.4165C5.29372 12.4181 5.6525 12.4243 6.01162 12.4233C8.61957 12.4156 11.2276 12.4365 13.8357 12.4121C14.1817 12.4088 14.5221 12.3793 14.8618 12.3359C15.5128 12.2526 16.0881 12.0583 16.5804 11.7516C17.154 11.3941 17.5411 10.9565 17.7159 10.4283C17.8302 10.0831 17.8588 9.7329 17.8637 9.38141V9.3113C17.8637 9.28412 17.8489 3.33945 17.8475 3.26087C17.8437 3.04505 17.8209 2.8308 17.7631 2.61842C17.6926 2.35962 17.5931 2.10743 17.4158 1.87332C17.2285 1.62591 16.9939 1.40353 16.7036 1.20915C16.2592 0.911347 15.7463 0.700786 15.149 0.58938C14.6098 0.488885 14.0597 0.466489 13.5054 0.466871C13.5037 0.465128 13.5026 0.463075 13.5024 0.460938H5.11505C5.11505 0.462947 5.11505 0.464909 5.11457 0.466871C4.80003 0.470891 4.48508 0.469216 4.17219 0.49635C3.82943 0.526116 3.4899 0.570956 3.1655 0.654702C2.65448 0.786781 2.21044 0.992509 1.83119 1.26724C1.40146 1.5783 1.09843 1.93826 0.937903 2.35733C0.794433 2.73122 0.763205 3.11252 0.762451 3.49656" fill="#D9DDEB"/>
<path d="M9.72105 12.8721L5.90152 12.8021C4.66484 12.7778 3.42509 12.8264 2.21266 12.574C0.368274 12.1969 0.237611 10.3479 0.100887 8.79695C-0.0875063 6.61648 -0.0145738 4.39644 0.340948 2.23418C0.541652 1.02093 1.3315 0.296969 2.55298 0.218189C6.67636 -0.067717 10.8272 -0.0338342 14.9414 0.0995511C15.3759 0.111779 15.8134 0.178612 16.2419 0.254685C18.3568 0.625718 18.4084 2.72105 18.5455 4.48493C18.6822 6.26701 18.6245 8.05824 18.3632 9.82819C18.1535 11.2937 17.7524 12.5226 16.0595 12.6412C13.9385 12.7964 11.8662 12.9213 9.73924 12.8815C9.73933 12.8721 9.72711 12.8721 9.72105 12.8721ZM7.47554 9.16191C9.07389 8.24343 10.6418 7.34026 12.231 6.42793C10.6296 5.50945 9.06475 4.60628 7.47554 3.69395V9.16191Z" fill="currentColor"/>
</svg>
