<svg xmlns="http://www.w3.org/2000/svg" width="21" height="21" viewBox="0 0 21 21" fill="none">
<path d="M13.2241 8.045C13.092 8.045 12.9754 7.95859 12.937 7.83219L10.6226 0.212599C10.5364 -0.0711461 10.1347 -0.0711464 10.0485 0.212598L7.73404 7.83219C7.69565 7.95859 7.5791 8.045 7.44699 8.045H0.300649C0.00872695 8.045 -0.111234 8.41963 0.12639 8.5892L5.96791 12.7577C6.07322 12.8328 6.11849 12.967 6.08022 13.0906L3.84268 20.3174C3.75637 20.5961 4.07849 20.8215 4.3108 20.645L10.1541 16.2033C10.2614 16.1217 10.4098 16.1217 10.5171 16.2031L16.3718 20.6463C16.6042 20.8226 16.926 20.5972 16.8398 20.3186L14.6018 13.0904C14.5635 12.9669 14.6087 12.8328 14.7139 12.7576L20.5461 8.58907C20.7835 8.41938 20.6635 8.045 20.3717 8.045H13.2241Z" fill="#F3C612"/>
</svg>