<svg width="15" height="15" viewBox="0 0 15 15" fill="none" class="icon" xmlns="http://www.w3.org/2000/svg">
<path d="M9.11734 5.40211C8.98523 5.40211 8.86868 5.3157 8.83029 5.18931L7.31868 0.212842C7.2325 -0.0709031 6.83077 -0.0709023 6.74458 0.212842L5.23298 5.18931C5.19459 5.3157 5.07803 5.40211 4.94593 5.40211H0.300649C0.00872654 5.40211 -0.111234 5.77675 0.12639 5.94631L3.92609 8.65775C4.0314 8.7329 4.07667 8.86709 4.03841 8.99068L2.57728 13.7098C2.49097 13.9886 2.8131 14.214 3.0454 14.0374L6.85024 11.1452C6.95746 11.0637 7.10585 11.0636 7.21314 11.1451L11.0261 14.0387C11.2584 14.215 11.5803 13.9896 11.494 13.711L10.0325 8.99051C9.99424 8.86701 10.0394 8.7329 10.1446 8.65772L13.9383 5.94618C14.1757 5.7765 14.0557 5.40211 13.7639 5.40211H9.11734Z" fill="#F3C612"/>
</svg>
