<!-- <svg xmlns="http://www.w3.org/2000/svg" fill="none" class="icon icon-hamburger" viewBox="0 0 18 16"><path fill="currentColor" d="M1 .5a.5.5 0 1 0 0 1h15.71a.5.5 0 0 0 0-1zM.5 8a.5.5 0 0 1 .5-.5h15.71a.5.5 0 0 1 0 1H1A.5.5 0 0 1 .5 8m0 7a.5.5 0 0 1 .5-.5h15.71a.5.5 0 0 1 0 1H1a.5.5 0 0 1-.5-.5"/></svg> -->


<svg xmlns="http://www.w3.org/2000/svg" class="icon icon-hamburger" version="1.1" xmlns:xlink="http://www.w3.org/1999/xlink" width="512" height="512" x="0" y="0" viewBox="0 0 512 512" style="enable-background:new 0 0 512 512" xml:space="preserve" class=""><g><path d="M128 102.4c0-14.138 11.462-25.6 25.6-25.6h332.8c14.138 0 25.6 11.462 25.6 25.6S500.538 128 486.4 128H153.6c-14.138 0-25.6-11.463-25.6-25.6zm358.4 128H25.6C11.462 230.4 0 241.863 0 256c0 14.138 11.462 25.6 25.6 25.6h460.8c14.138 0 25.6-11.462 25.6-25.6 0-14.137-11.462-25.6-25.6-25.6zm0 153.6H256c-14.137 0-25.6 11.462-25.6 25.6 0 14.137 11.463 25.6 25.6 25.6h230.4c14.138 0 25.6-11.463 25.6-25.6 0-14.138-11.462-25.6-25.6-25.6z" fill="currentColor" opacity="1" data-original="currentColor" class=""></path></g></svg>